<svg xmlns="http://www.w3.org/2000/svg" xmlns:xlink="http://www.w3.org/1999/xlink" viewBox="0,0,256,256" width="64px" height="64px"><defs><clipPath id="clip-1"><path d="M0,256v-256h256v256h-49.39093c21.93858,-8.62629 37.46785,-29.99962 37.46785,-55c0,-32.62728 -26.44964,-59.07692 -59.07692,-59.07692c-32.62728,0 -59.07692,26.44964 -59.07692,59.07692c0,25.00038 15.52928,46.37371 37.46785,55z" id="overlayBgMask" fill="none"></path></clipPath></defs><g clip-path="url(#clip-1)" fill="none" fill-rule="nonzero" stroke="none" stroke-width="1" stroke-linecap="butt" stroke-linejoin="miter" stroke-miterlimit="10" stroke-dasharray="" stroke-dashoffset="0" font-family="none" font-weight="none" font-size="none" text-anchor="none" style="mix-blend-mode: normal"><g transform="scale(5.12,5.12)" fill="#000000"><path d="M12.5,11c-1.93,0 -3.5,1.57 -3.5,3.5v21c0,1.93 1.57,3.5 3.5,3.5h25c1.93,0 3.5,-1.57 3.5,-3.5v-18c0,-1.93 -1.57,-3.5 -3.5,-3.5h-15c-0.538,0 -1.071,-0.178 -1.5,-0.5l-2.40039,-1.80078c-0.601,-0.451 -1.34661,-0.69922 -2.09961,-0.69922zM12.5,12h4c0.538,0 1.07,0.178 1.5,0.5l2.40039,1.80078c0.601,0.451 1.34661,0.69922 2.09961,0.69922h15c1.378,0 2.5,1.122 2.5,2.5v1.5h-30v-4.5c0,-1.378 1.122,-2.5 2.5,-2.5zM10,20h30v15.5c0,1.378 -1.122,2.5 -2.5,2.5h-25c-1.378,0 -2.5,-1.122 -2.5,-2.5zM29.27539,22.01367l-4.68359,0.94922c-0.345,0.07 -0.5918,0.3565 -0.5918,0.6875v6.92383c0,0.337 -0.28652,0.59925 -1.22852,0.78125c-1.459,0.283 -2.77148,0.84947 -2.77148,2.60547c0,0.868 0.78848,1.97461 2.77148,1.97461c1.727,0 3.22852,-1.4082 3.22852,-3.4082v-5.38672c0,-0.221 0.16353,-0.41098 0.39453,-0.45898l3.01367,-0.61133c0.345,-0.07 0.5918,-0.3565 0.5918,-0.6875v-2.82227c0,-0.357 -0.35161,-0.62288 -0.72461,-0.54687z"></path></g></g><g fill="#000000" fill-rule="nonzero" stroke="none" stroke-width="1" stroke-linecap="butt" stroke-linejoin="miter" stroke-miterlimit="10" stroke-dasharray="" stroke-dashoffset="0" font-family="none" font-weight="none" font-size="none" text-anchor="none" style="mix-blend-mode: normal"><g transform="translate(133.8,149.8) scale(7.87692,7.87692)" id="overlay"><path d="M6.5,0c-3.59,0 -6.5,2.91 -6.5,6.5c0,3.59 2.91,6.5 6.5,6.5c3.59,0 6.5,-2.91 6.5,-6.5c0,-3.59 -2.91,-6.5 -6.5,-6.5zM10,7h-3v3c0,0.276 -0.224,0.5 -0.5,0.5c-0.276,0 -0.5,-0.224 -0.5,-0.5v-3h-3c-0.276,0 -0.5,-0.224 -0.5,-0.5c0,-0.276 0.224,-0.5 0.5,-0.5h3v-3c0,-0.276 0.224,-0.5 0.5,-0.5c0.276,0 0.5,0.224 0.5,0.5v3h3c0.276,0 0.5,0.224 0.5,0.5c0,0.276 -0.224,0.5 -0.5,0.5z" id="overlay"></path></g></g></svg>