<svg xmlns="http://www.w3.org/2000/svg" xmlns:xlink="http://www.w3.org/1999/xlink" viewBox="0,0,256,256" width="64px" height="64px"><defs><clipPath id="clip-1"><path d="M0,256v-256h256v256zM138.84615,201c0,25.53846 20.61538,46.15385 46.15385,46.15385c25.53846,0 46.15385,-20.61538 46.15385,-46.15385c0,-25.53846 -20.61538,-46.15385 -46.15385,-46.15385c-25.53846,0 -46.15385,20.61538 -46.15385,46.15385z" id="overlayBgMask" fill="none"></path></clipPath></defs><g clip-path="url(#clip-1)" fill="none" fill-rule="nonzero" stroke="none" stroke-width="1" stroke-linecap="butt" stroke-linejoin="miter" stroke-miterlimit="10" stroke-dasharray="" stroke-dashoffset="0" font-family="none" font-weight="none" font-size="none" text-anchor="none" style="mix-blend-mode: normal"><g transform="scale(4,4)" fill="#000000"><path d="M10.0918,7c-1.69579,0 -3.0918,1.396 -3.0918,3.0918v5.9082c-0.0016,0.14032 0.02635,0.2794 0.08203,0.4082c-0.05089,0.22096 -0.08203,0.44814 -0.08203,0.68359v5.9082c-0.0016,0.14032 0.02635,0.2794 0.08203,0.4082c-0.05089,0.22096 -0.08203,0.44814 -0.08203,0.68359v30.81641c0,1.69579 1.396,3.0918 3.0918,3.0918h43.81641c1.69579,0 3.0918,-1.39654 3.0918,-3.0918v-30.81641c0,-0.23481 -0.03141,-0.46124 -0.08203,-0.68164c0.05595,-0.12941 0.0839,-0.26918 0.08203,-0.41016v-5.9082c0,-0.23481 -0.0314,-0.46124 -0.08203,-0.68164c0.05595,-0.12941 0.0839,-0.26918 0.08203,-0.41016v-5.9082c0,-1.69579 -1.39654,-3.0918 -3.0918,-3.0918zM10.0918,9h43.81641c0.61474,0 1.0918,0.47559 1.0918,1.0918v4.11914c-0.34105,-0.13091 -0.70718,-0.21094 -1.0918,-0.21094h-43.81641c-0.38474,0 -0.75072,0.08002 -1.0918,0.21094v-4.11914c0,-0.61621 0.47559,-1.0918 1.0918,-1.0918zM10.0918,16h43.81641c0.61474,0 1.0918,0.47559 1.0918,1.0918v4.11914c-0.34107,-0.13091 -0.70706,-0.21094 -1.0918,-0.21094h-0.9082c-0.36064,-0.0051 -0.69608,0.18438 -0.87789,0.49587c-0.18181,0.3115 -0.18181,0.69676 0,1.00825c0.18181,0.3115 0.51725,0.50097 0.87789,0.49587h0.9082c0.61621,0 1.0918,0.47559 1.0918,1.0918v30.81641c0,0.61474 -0.47559,1.0918 -1.0918,1.0918h-43.81641c-0.61621,0 -1.0918,-0.47559 -1.0918,-1.0918v-30.81641c0,-0.61621 0.47559,-1.0918 1.0918,-1.0918h30.9082c0.36064,0.0051 0.69608,-0.18438 0.87789,-0.49587c0.18181,-0.3115 0.18181,-0.69676 0,-1.00825c-0.18181,-0.3115 -0.51725,-0.50097 -0.87789,-0.49587h-30.9082c-0.38474,0 -0.75072,0.08002 -1.0918,0.21094v-4.11914c0,-0.61621 0.47559,-1.0918 1.0918,-1.0918zM45,21c-0.36064,-0.0051 -0.69608,0.18438 -0.87789,0.49587c-0.18181,0.3115 -0.18181,0.69676 0,1.00825c0.18181,0.3115 0.51725,0.50097 0.87789,0.49587h4c0.36064,0.0051 0.69608,-0.18438 0.87789,-0.49587c0.18181,-0.3115 0.18181,-0.69676 0,-1.00825c-0.18181,-0.3115 -0.51725,-0.50097 -0.87789,-0.49587zM30.95898,26.00195c-0.3892,0.01655 -0.75098,0.25994 -0.89648,0.64844c-0.042,0.112 -0.0625,0.23352 -0.0625,0.35352v10.99805c-3.31,0 -6,2.23905 -6,4.99805c0,2.759 2.69,5 6,5c3.31,0 6,-2.23905 6,-4.99805v-7.34961l4.58984,2c0.504,0.227 1.09526,0.00205 1.32227,-0.50195c0.052,-0.116 0.08289,-0.24214 0.08789,-0.36914v-5.99805c0.001,-0.419 -0.25839,-0.79345 -0.65039,-0.93945l-10,-3.7793c-0.12925,-0.04825 -0.26089,-0.06802 -0.39062,-0.0625zM32,28.45313l8,3v3.78906l-4.58984,-2c-0.504,-0.226 -1.09627,-0.00205 -1.32227,0.50195c-0.058,0.129 -0.08789,0.2682 -0.08789,0.4082v8.84961c0,1.65 -1.79,3 -4,3c-2.21,0 -4,-1.35 -4,-3c0,-1.65 1.79,-3 4,-3c0.281,0.001 0.56184,0.02336 0.83984,0.06836c0.545,0.088 1.05848,-0.28117 1.14648,-0.82617c0.009,-0.057 0.01467,-0.11583 0.01367,-0.17383zM12,50c-0.552,0 -1,0.448 -1,1v2c0,0.552 0.448,1 1,1c0.552,0 1,-0.448 1,-1v-2c0,-0.552 -0.448,-1 -1,-1zM17,50c-0.552,0 -1,0.448 -1,1v2c0,0.552 0.448,1 1,1c0.552,0 1,-0.448 1,-1v-2c0,-0.552 -0.448,-1 -1,-1zM22,50c-0.552,0 -1,0.448 -1,1v2c0,0.552 0.448,1 1,1c0.552,0 1,-0.448 1,-1v-2c0,-0.552 -0.448,-1 -1,-1zM27,50c-0.552,0 -1,0.448 -1,1v2c0,0.552 0.448,1 1,1c0.552,0 1,-0.448 1,-1v-2c0,-0.552 -0.448,-1 -1,-1zM32,50c-0.552,0 -1,0.448 -1,1v2c0,0.552 0.448,1 1,1c0.552,0 1,-0.448 1,-1v-2c0,-0.552 -0.448,-1 -1,-1zM37,50c-0.552,0 -1,0.448 -1,1v2c0,0.552 0.448,1 1,1c0.552,0 1,-0.448 1,-1v-2c0,-0.552 -0.448,-1 -1,-1zM42,50c-0.552,0 -1,0.448 -1,1v2c0,0.552 0.448,1 1,1c0.552,0 1,-0.448 1,-1v-2c0,-0.552 -0.448,-1 -1,-1zM47,50c-0.552,0 -1,0.448 -1,1v2c0,0.552 0.448,1 1,1c0.552,0 1,-0.448 1,-1v-2c0,-0.552 -0.448,-1 -1,-1zM52,50c-0.552,0 -1,0.448 -1,1v2c0,0.552 0.448,1 1,1c0.552,0 1,-0.448 1,-1v-2c0,-0.552 -0.448,-1 -1,-1z"></path></g></g><g fill="#000000" fill-rule="nonzero" stroke="none" stroke-width="1" stroke-linecap="butt" stroke-linejoin="miter" stroke-miterlimit="10" stroke-dasharray="" stroke-dashoffset="0" font-family="none" font-weight="none" font-size="none" text-anchor="none" style="mix-blend-mode: normal"><g transform="translate(145,161) scale(3.07692,3.07692)" id="overlay"><path d="M13,0c-7.2,0 -13,5.8 -13,13c0,7.2 5.8,13 13,13c7.2,0 13,-5.8 13,-13c0,-7.2 -5.8,-13 -13,-13zM13,24c-6.1,0 -11,-4.9 -11,-11c0,-6.1 4.9,-11 11,-11c6.1,0 11,4.9 11,11c0,6.1 -4.9,11 -11,11zM20,13c0,0.6 -0.4,1 -1,1h-5v5c0,0.6 -0.4,1 -1,1c-0.6,0 -1,-0.4 -1,-1v-5h-5c-0.6,0 -1,-0.4 -1,-1c0,-0.6 0.4,-1 1,-1h5v-5c0,-0.6 0.4,-1 1,-1c0.6,0 1,0.4 1,1v5h5c0.6,0 1,0.4 1,1z"></path></g></g></svg>