<svg xmlns="http://www.w3.org/2000/svg"  viewBox="0 0 64 64" width="64px" height="64px"><path d="M 54.34375 2.039063 C 53.308594 2.039063 52.273438 2.414063 51.515625 3.171875 L 48.738281 5.945313 C 48.738281 5.945313 48.734375 5.949219 48.734375 5.949219 L 48.277344 6.410156 L 47.980469 6.707031 C 47.980469 6.707031 47.980469 6.710938 47.980469 6.710938 L 46.625 8.066406 C 46.519531 8.03125 46.410156 8 46.296875 8 L 5 8 C 3.347656 8 2 9.347656 2 11 L 2 57 C 2 58.652344 3.347656 60 5 60 L 51 60 C 52.652344 60 54 58.652344 54 57 L 54 23.324219 L 59.296875 18.019531 L 62.828125 14.484375 C 63.585938 13.730469 64 12.722656 64 11.65625 C 64 10.589844 63.585938 9.582031 62.828125 8.828125 L 57.171875 3.171875 C 56.417969 2.417969 55.378906 2.039063 54.34375 2.039063 Z M 54.34375 4.019531 C 54.863281 4.019531 55.378906 4.207031 55.757813 4.585938 L 61.414063 10.242188 C 61.792969 10.621094 62 11.121094 62 11.65625 C 62 12.191406 61.792969 12.691406 61.414063 13.070313 L 58.585938 15.898438 L 50.101563 7.414063 L 52.929688 4.585938 C 53.308594 4.207031 53.824219 4.019531 54.34375 4.019531 Z M 48.6875 8.828125 L 57.171875 17.3125 L 55.753906 18.734375 C 55.363281 18.363281 54.75 18.367188 54.363281 18.75 L 52.953125 20.164063 C 52.566406 20.550781 52.566406 21.167969 52.9375 21.558594 L 51.519531 22.976563 L 43.035156 14.492188 Z M 5 10 L 44.691406 10 L 40.953125 13.75 C 40.9375 13.761719 40.921875 13.765625 40.90625 13.78125 C 40.894531 13.792969 40.890625 13.8125 40.875 13.828125 L 21.136719 33.609375 C 20.976563 33.765625 20.875 33.972656 20.851563 34.199219 L 20.121094 40.507813 L 19.410156 45.457031 C 19.367188 45.769531 19.472656 46.082031 19.691406 46.308594 C 19.882813 46.496094 20.136719 46.597656 20.402344 46.597656 C 20.449219 46.597656 20.496094 46.597656 20.542969 46.589844 L 25.464844 45.886719 L 31.847656 45.210938 C 32.078125 45.1875 32.289063 45.082031 32.453125 44.921875 L 52 25.328125 L 52 57 C 52 57.550781 51.550781 58 51 58 L 5 58 C 4.449219 58 4 57.550781 4 57 L 4 11 C 4 10.449219 4.449219 10 5 10 Z M 48 11.386719 C 47.746094 11.386719 47.492188 11.484375 47.296875 11.679688 L 45.878906 13.09375 C 45.488281 13.484375 45.488281 14.117188 45.878906 14.507813 C 46.074219 14.703125 46.332031 14.800781 46.589844 14.800781 C 46.84375 14.800781 47.101563 14.703125 47.296875 14.507813 L 48.707031 13.09375 C 49.097656 12.703125 49.097656 12.070313 48.707031 11.679688 C 48.511719 11.484375 48.257813 11.386719 48 11.386719 Z M 10 14 C 8.898438 14 8 14.898438 8 16 L 8 52 C 8 53.101563 8.898438 54 10 54 L 13 54 C 13.554688 54 14 53.550781 14 53 C 14 52.449219 13.554688 52 13 52 L 10 52 L 10 16 L 35.332031 16 C 35.886719 16 36.332031 15.550781 36.332031 15 C 36.332031 14.449219 35.886719 14 35.332031 14 Z M 51.535156 14.921875 C 51.28125 14.921875 51.023438 15.019531 50.828125 15.214844 L 49.414063 16.628906 C 49.023438 17.019531 49.023438 17.652344 49.414063 18.042969 C 49.609375 18.238281 49.863281 18.335938 50.121094 18.335938 C 50.378906 18.335938 50.632813 18.238281 50.828125 18.042969 L 52.242188 16.628906 C 52.632813 16.238281 52.632813 15.605469 52.242188 15.214844 C 52.046875 15.019531 51.789063 14.921875 51.535156 14.921875 Z M 41.625 15.90625 L 50.109375 24.390625 L 32.453125 42.082031 L 32.003906 37.71875 C 31.949219 37.207031 31.519531 36.820313 31.007813 36.820313 L 29.179688 36.820313 L 29.179688 35.40625 L 34.546875 30.042969 C 34.9375 29.648438 34.9375 29.019531 34.546875 28.625 C 34.152344 28.234375 33.523438 28.234375 33.128906 28.625 L 27.8125 33.945313 L 24.019531 33.546875 Z M 39.496094 22.675781 C 39.238281 22.675781 38.984375 22.773438 38.785156 22.96875 L 35.957031 25.796875 C 35.566406 26.1875 35.566406 26.820313 35.957031 27.214844 C 36.152344 27.40625 36.40625 27.503906 36.664063 27.503906 C 36.921875 27.503906 37.175781 27.40625 37.371094 27.214844 L 40.203125 24.386719 C 40.59375 23.996094 40.59375 23.363281 40.203125 22.96875 C 40.003906 22.773438 39.75 22.675781 39.496094 22.675781 Z M 47 34.082031 C 46.445313 34.082031 46 34.53125 46 35.082031 L 46 52 L 43 52 C 42.445313 52 42 52.449219 42 53 C 42 53.550781 42.445313 54 43 54 L 46 54 C 47.101563 54 48 53.101563 48 52 L 48 35.082031 C 48 34.53125 47.554688 34.082031 47 34.082031 Z M 22.722656 35.421875 L 27.179688 35.890625 L 27.179688 37.816406 C 27.179688 38.371094 27.625 38.820313 28.179688 38.820313 L 30.109375 38.820313 L 30.574219 43.332031 L 25.71875 43.84375 L 22.15625 40.28125 Z M 18 50 C 17.445313 50 17 50.449219 17 51 L 17 53 C 17 53.550781 17.445313 54 18 54 C 18.554688 54 19 53.550781 19 53 L 19 51 C 19 50.449219 18.554688 50 18 50 Z M 23 50 C 22.445313 50 22 50.449219 22 51 L 22 53 C 22 53.550781 22.445313 54 23 54 C 23.554688 54 24 53.550781 24 53 L 24 51 C 24 50.449219 23.554688 50 23 50 Z M 28 50 C 27.445313 50 27 50.449219 27 51 L 27 53 C 27 53.550781 27.445313 54 28 54 C 28.554688 54 29 53.550781 29 53 L 29 51 C 29 50.449219 28.554688 50 28 50 Z M 33 50 C 32.445313 50 32 50.449219 32 51 L 32 53 C 32 53.550781 32.445313 54 33 54 C 33.554688 54 34 53.550781 34 53 L 34 51 C 34 50.449219 33.554688 50 33 50 Z M 38 50 C 37.445313 50 37 50.449219 37 51 L 37 53 C 37 53.550781 37.445313 54 38 54 C 38.554688 54 39 53.550781 39 53 L 39 51 C 39 50.449219 38.554688 50 38 50 Z"/></svg>