<svg xmlns="http://www.w3.org/2000/svg"  viewBox="0 0 50 50" width="64px" height="64px"><path d="M28,32.497V29H11c-1.105,0-2-0.895-2-2v-4c0-1.105,0.895-2,2-2h17v-3.497c0-1.338,1.554-2.076,2.591-1.23l8.795,7.177	c0.981,0.8,0.981,2.299,0,3.099l-8.795,7.177C29.554,34.572,28,33.835,28,32.497z M11,28h17.372C28.719,28,29,28.281,29,28.628	v3.862c0,0.498,0.578,0.773,0.964,0.458l8.789-7.172c0.49-0.4,0.49-1.149,0-1.55l-8.789-7.172C29.578,16.738,29,17.013,29,17.511	v3.862C29,21.719,28.719,22,28.372,22H11c-0.552,0-1,0.448-1,1v4C10,27.552,10.448,28,11,28z"/></svg>