<svg xmlns="http://www.w3.org/2000/svg"  viewBox="0 0 50 50" width="64px" height="64px"><path d="M 10.5 8 C 9.121 8 8 9.122 8 10.5 L 8 33.5 C 8 34.878 9.121 36 10.5 36 L 12 36 L 12 37.5 C 12 38.878 13.121 40 14.5 40 L 36.271484 40 L 35.273438 39 L 14.5 39 C 13.673 39 13 38.327 13 37.5 L 13 14.5 C 13 13.673 13.673 13 14.5 13 L 37.5 13 C 38.327 13 39 13.673 39 14.5 L 39 35.201172 L 40 36.201172 L 40 14.5 C 40 13.122 38.879 12 37.5 12 L 36 12 L 36 10.5 C 36 9.122 34.879 8 33.5 8 L 10.5 8 z M 10.5 9 L 33.5 9 C 34.327 9 35 9.673 35 10.5 L 35 12 L 14.5 12 C 13.121 12 12 13.122 12 14.5 L 12 35 L 10.5 35 C 9.673 35 9 34.327 9 33.5 L 9 10.5 C 9 9.673 9.673 9 10.5 9 z M 24.367188 24.056641 C 24.113922 24.126859 23.918453 24.415688 24.033203 24.679688 L 25.412109 27.712891 L 37.916016 40.232422 L 40.273438 37.888672 L 27.769531 25.384766 L 24.630859 24.068359 C 24.542859 24.033859 24.451609 24.033234 24.367188 24.056641 z M 41.375 39.007812 L 39.042969 41.355469 L 40.228516 42.527344 C 40.795516 43.093344 41.6665 43.169438 42.1875 42.648438 L 42.585938 42.236328 C 43.167938 41.655328 43.121063 40.811219 42.539062 40.199219 L 41.375 39.007812 z"/></svg>