<?xml version="1.0"?><svg xmlns="http://www.w3.org/2000/svg"  viewBox="0 0 64 64" width="64px" height="64px">    <path d="M 6 2 C 4.972 2 4 2.972 4 4 L 4 38 C 4 39.028 4.972 40 6 40 L 8 40 L 8 44 C 8 45.028 8.972 46 10 46 L 12 46 L 12 50 C 12 51.028 12.972 52 14 52 L 38.626953 52 L 43.390625 56.779297 L 46.390625 59.779297 L 49.21875 62.611328 C 49.97775 63.355328 51.25 64 52 64 C 52.75 64 53.281 64.000438 54 63.898438 C 54.719 63.796438 55.663781 63.238375 56.300781 62.609375 L 60.539062 58.367188 C 62.492062 56.414187 62.492062 53.249875 60.539062 51.296875 L 57.710938 48.46875 L 48 38.726562 L 48 16 C 48 14.972 47.028 14 46 14 L 44 14 L 44 10 C 44 8.972 43.028 8 42 8 L 40 8 L 40 4 C 40 2.972 39.028 2 38 2 L 6 2 z M 37.921875 3.9882812 C 37.949875 4.0002813 37.999 4.051 38 4 L 38 8 L 10 8 C 8.972 8 8 8.972 8 10 L 8 38.005859 L 6.078125 38.011719 C 6.049125 37.997719 5.999 37.946 6 38 L 5.9882812 4.078125 C 6.0012812 4.049125 6.05 4.001 6 4 L 37.921875 3.9882812 z M 41.921875 9.9882812 C 41.948875 10.001281 42 10.051 42 10 L 42 14 L 14 14 C 12.972 14 12 14.972 12 16 L 12 44.005859 L 10.078125 44.011719 C 10.050125 43.998719 10 43.946 10 44 L 9.9980469 40 L 10 40 L 10 38 L 9.9980469 38 L 9.9882812 10.078125 C 10.001281 10.049125 10.05 10.001 10 10 L 41.921875 9.9882812 z M 45.921875 15.988281 C 45.948875 16.000281 45.999 16.052 46 16 L 46 36.71875 L 39.910156 30.609375 C 39.750156 30.445375 39.539594 30.343406 39.308594 30.316406 L 32.921875 29.636719 L 28 28.9375 L 27.820312 28.9375 C 27.527313 28.9335 27.250594 29.058344 27.058594 29.277344 C 26.866594 29.496344 26.777312 29.789125 26.820312 30.078125 L 28.269531 41.298828 C 28.292531 41.521828 28.394781 41.728672 28.550781 41.888672 L 31.152344 44.5 C 31.063819 44.649263 31 44.813925 31 45 L 31 47 C 31 47.552 31.447 48 32 48 C 32.553 48 33 47.552 33 47 L 33 46.353516 L 36.636719 50.001953 L 14.078125 50.011719 C 14.050125 49.998719 13.999 49.946 14 50 L 13.998047 46 L 14 46 L 14 44 L 13.998047 44 L 13.988281 16.078125 C 14.001281 16.049125 14.05 16.001 14 16 L 45.921875 15.988281 z M 19 24 C 18.447 24 18 24.448 18 25 C 18 25.552 18.447 26 19 26 L 33 26 C 33.553 26 34 25.552 34 25 C 34 24.448 33.553 24 33 24 L 19 24 z M 37 24 C 36.447 24 36 24.448 36 25 C 36 25.552 36.447 26 37 26 L 41 26 C 41.553 26 42 25.552 42 25 C 42 24.448 41.553 24 41 24 L 37 24 z M 19 30 C 18.447 30 18 30.448 18 31 C 18 31.552 18.447 32 19 32 L 23 32 C 23.553 32 24 31.552 24 31 C 24 30.448 23.553 30 23 30 L 19 30 z M 33.140625 31.648438 L 38 32.15625 L 37.53125 36.679688 L 35.601562 36.679688 C 35.046563 36.679688 34.601562 37.124688 34.601562 37.679688 L 34.601562 39.609375 L 30.140625 40.078125 L 29.578125 35.207031 L 33.140625 31.648438 z M 39.869141 33.40625 L 52.179688 45.738281 C 52.249688 45.843281 52.343219 45.936813 52.449219 46.007812 L 52.519531 46.078125 L 44 54.589844 L 31.480469 41.9375 L 35.269531 41.539062 L 40.589844 46.859375 C 40.987844 47.199375 41.576266 47.175688 41.947266 46.804688 C 42.314266 46.437688 42.338047 45.843219 41.998047 45.449219 L 36.589844 40.078125 L 36.589844 38.679688 L 38.421875 38.679688 C 38.933875 38.679688 39.366875 38.292344 39.421875 37.777344 L 39.869141 33.40625 z M 17 44 C 16.447 44 16 44.448 16 45 L 16 47 C 16 47.552 16.447 48 17 48 C 17.553 48 18 47.552 18 47 L 18 45 C 18 44.448 17.553 44 17 44 z M 22 44 C 21.447 44 21 44.448 21 45 L 21 47 C 21 47.552 21.447 48 22 48 C 22.553 48 23 47.552 23 47 L 23 45 C 23 44.448 22.553 44 22 44 z M 27 44 C 26.447 44 26 44.448 26 45 L 26 47 C 26 47.552 26.447 48 27 48 C 27.553 48 28 47.552 28 47 L 28 45 C 28 44.448 27.553 44 27 44 z M 53.929688 47.46875 L 55.578125 49.128906 L 47.101562 57.609375 L 45.449219 55.949219 L 53.929688 47.46875 z M 57 50.589844 L 59.121094 52.667969 C 60.289094 53.839969 60.289094 55.73825 59.121094 56.90625 L 54.878906 61.148438 L 54.878906 61.199219 C 54.316906 61.761219 53.550906 62.082031 52.753906 62.082031 C 51.956906 62.082031 51.191906 61.762219 50.628906 61.199219 L 48.558594 59.128906 L 48.511719 59.078125 L 57 50.589844 z"/></svg>