<svg xmlns="http://www.w3.org/2000/svg"  viewBox="0 0 64 64" width="64px" height="64px"><path d="M 44.550781 5.761719 C 44.144531 5.800781 43.75 5.964844 43.417969 6.257813 C 42.757813 6.832031 42.550781 7.722656 42.890625 8.523438 C 44.425781 12.164063 45.128906 16.035156 44.980469 20.027344 C 44.460938 34.082031 33.039063 45.484375 18.984375 45.984375 C 15.757813 46.097656 12.582031 45.648438 9.546875 44.644531 C 8.71875 44.371094 7.84375 44.648438 7.320313 45.351563 C 6.796875 46.058594 6.785156 46.984375 7.296875 47.703125 C 12.785156 55.488281 21.546875 60 31 60 C 31.585938 60 32.175781 59.980469 32.765625 59.949219 C 47.128906 59.09375 58.796875 47.644531 59.910156 33.3125 C 60.773438 22.167969 55.351563 11.71875 45.757813 6.039063 C 45.378906 5.816406 44.960938 5.722656 44.550781 5.761719 Z M 44.738281 7.757813 C 53.671875 13.046875 58.722656 22.78125 57.917969 33.15625 C 56.878906 46.5 46.015625 57.15625 32.648438 57.953125 C 23.222656 58.507813 14.359375 54.246094 8.921875 46.546875 C 12.179688 47.621094 15.589844 48.105469 19.050781 47.984375 C 34.152344 47.445313 46.417969 35.199219 46.980469 20.105469 C 47.136719 15.816406 46.382813 11.660156 44.738281 7.757813 Z M 52.65625 22.035156 C 52.523438 22.03125 52.394531 22.050781 52.265625 22.097656 C 51.746094 22.285156 51.476563 22.859375 51.667969 23.378906 C 51.929688 24.097656 52.152344 24.832031 52.335938 25.574219 C 52.449219 26.027344 52.859375 26.332031 53.308594 26.332031 C 53.386719 26.332031 53.46875 26.324219 53.546875 26.304688 C 54.082031 26.171875 54.410156 25.628906 54.277344 25.09375 C 54.078125 24.285156 53.832031 23.476563 53.546875 22.691406 C 53.402344 22.304688 53.042969 22.054688 52.65625 22.035156 Z M 53.875 28.640625 C 53.324219 28.664063 52.898438 29.128906 52.921875 29.683594 C 53.082031 33.519531 52.195313 37.320313 50.359375 40.675781 C 50.09375 41.160156 50.273438 41.769531 50.757813 42.03125 C 50.910156 42.117188 51.074219 42.15625 51.234375 42.15625 C 51.589844 42.15625 51.933594 41.96875 52.113281 41.636719 C 54.125 37.960938 55.09375 33.796875 54.917969 29.59375 C 54.894531 29.042969 54.445313 28.621094 53.875 28.640625 Z M 39.625 48.394531 C 39.496094 48.410156 39.371094 48.453125 39.25 48.519531 C 38.769531 48.796875 38.609375 49.410156 38.886719 49.890625 L 39.886719 51.621094 C 40.070313 51.941406 40.40625 52.121094 40.75 52.121094 C 40.921875 52.121094 41.09375 52.078125 41.25 51.984375 C 41.730469 51.710938 41.890625 51.097656 41.613281 50.621094 L 40.613281 48.890625 C 40.40625 48.53125 40.011719 48.347656 39.625 48.394531 Z M 24.8125 50.34375 C 24.429688 50.398438 24.09375 50.675781 23.984375 51.078125 L 23.46875 53.011719 C 23.324219 53.542969 23.644531 54.089844 24.175781 54.234375 C 24.261719 54.257813 24.351563 54.269531 24.4375 54.269531 C 24.878906 54.269531 25.28125 53.972656 25.402344 53.527344 L 25.917969 51.59375 C 26.0625 51.0625 25.746094 50.511719 25.214844 50.371094 C 25.078125 50.332031 24.941406 50.324219 24.8125 50.34375 Z M 35.1875 50.34375 C 35.058594 50.324219 34.921875 50.332031 34.785156 50.371094 C 34.253906 50.511719 33.9375 51.0625 34.078125 51.59375 L 34.597656 53.527344 C 34.71875 53.972656 35.121094 54.269531 35.5625 54.269531 C 35.648438 54.269531 35.734375 54.257813 35.824219 54.234375 C 36.355469 54.089844 36.671875 53.542969 36.53125 53.011719 L 36.015625 51.078125 C 35.90625 50.675781 35.570313 50.398438 35.1875 50.34375 Z M 30 51 C 29.449219 51 29 51.449219 29 52 L 29 54 C 29 54.550781 29.449219 55 30 55 C 30.550781 55 31 54.550781 31 54 L 31 52 C 31 51.449219 30.550781 51 30 51 Z"/></svg>