<svg xmlns="http://www.w3.org/2000/svg"  viewBox="0 0 50 50" width="64px" height="64px"><path d="M 12.5 11 C 10.57 11 9 12.57 9 14.5 L 9 35.5 C 9 37.43 10.57 39 12.5 39 L 37.5 39 C 39.43 39 41 37.43 41 35.5 L 41 17.5 C 41 15.57 39.43 14 37.5 14 L 22.5 14 C 21.962 14 21.429 13.822 21 13.5 L 18.599609 11.699219 C 17.998609 11.248219 17.253 11 16.5 11 L 12.5 11 z M 12.5 12 L 16.5 12 C 17.038 12 17.57 12.178 18 12.5 L 20.400391 14.300781 C 21.001391 14.751781 21.747 15 22.5 15 L 37.5 15 C 38.878 15 40 16.122 40 17.5 L 40 19 L 10 19 L 10 14.5 C 10 13.122 11.122 12 12.5 12 z M 10 20 L 40 20 L 40 35.5 C 40 36.878 38.878 38 37.5 38 L 12.5 38 C 11.122 38 10 36.878 10 35.5 L 10 20 z M 29.275391 22.013672 L 24.591797 22.962891 C 24.246797 23.032891 24 23.319391 24 23.650391 L 24 30.574219 C 24 30.911219 23.713484 31.173469 22.771484 31.355469 C 21.312484 31.638469 20 32.204937 20 33.960938 C 20 34.828938 20.788484 35.935547 22.771484 35.935547 C 24.498484 35.935547 26 34.527344 26 32.527344 L 26 27.140625 C 26 26.919625 26.163531 26.729641 26.394531 26.681641 L 29.408203 26.070312 C 29.753203 26.000312 30 25.713812 30 25.382812 L 30 22.560547 C 30 22.203547 29.648391 21.937672 29.275391 22.013672 z"/></svg>