<svg xmlns="http://www.w3.org/2000/svg"  viewBox="0 0 50 50" width="64px" height="64px"><path d="M38.207,26.265c0.435-0.277,0.694-0.75,0.694-1.265s-0.26-0.988-0.694-1.265C31.982,19.77,19.531,11.843,13.306,7.879	c-0.249-0.158-0.526-0.238-0.804-0.238c-0.247,0-0.494,0.063-0.723,0.188C11.291,8.097,11,8.588,11,9.145c0,7.928,0,23.783,0,31.711	c0,0.556,0.291,1.047,0.778,1.315c0.488,0.268,1.059,0.248,1.527-0.05C19.53,38.156,31.982,30.23,38.207,26.265z M10,40.855	c0-7.928,0-23.783,0-31.711c0-0.927,0.485-1.746,1.297-2.191c0.813-0.446,1.764-0.414,2.546,0.083	c6.227,3.961,18.676,11.891,24.901,15.855c0.725,0.461,1.157,1.25,1.157,2.109s-0.433,1.647-1.157,2.109	c-6.225,3.964-18.675,11.893-24.901,15.855c-0.414,0.264-0.876,0.396-1.34,0.396c-0.411,0-0.824-0.104-1.206-0.314	C10.485,42.601,10,41.782,10,40.855z"/></svg>