<svg xmlns="http://www.w3.org/2000/svg"  viewBox="0 0 64 64" width="64px" height="64px"><path d="M 28.070313 2 C 27.066406 2 26.132813 2.5 25.574219 3.335938 L 22.464844 8 L 11 8 C 9.347656 8 8 9.347656 8 11 L 8 17 C 8 18.652344 9.347656 20 11 20 L 11.097656 20 L 14.628906 53.523438 C 14.894531 56.078125 17.035156 58 19.601563 58 L 44.402344 58 C 46.964844 58 49.101563 56.078125 49.371094 53.523438 L 52.902344 20 L 53 20 C 54.652344 20 56 18.652344 56 17 L 56 11 C 56 9.347656 54.652344 8 53 8 L 41.535156 8 L 38.425781 3.335938 C 37.867188 2.5 36.933594 2 35.929688 2 Z M 28.070313 4 L 35.929688 4 C 36.265625 4 36.574219 4.167969 36.761719 4.445313 L 39.132813 8 L 24.867188 8 L 27.238281 4.445313 C 27.425781 4.167969 27.734375 4 28.070313 4 Z M 11 10 L 53 10 C 53.550781 10 54 10.449219 54 11 L 54 17 C 54 17.550781 53.550781 18 53 18 L 12 18 C 11.976563 18 11.960938 18.011719 11.9375 18.015625 C 11.917969 18.011719 11.898438 18 11.875 18 L 11 18 C 10.449219 18 10 17.550781 10 17 L 10 11 C 10 10.449219 10.449219 10 11 10 Z M 14 12 C 13.445313 12 13 12.449219 13 13 L 13 15 C 13 15.550781 13.445313 16 14 16 C 14.554688 16 15 15.550781 15 15 L 15 13 C 15 12.449219 14.554688 12 14 12 Z M 19 12 C 18.445313 12 18 12.449219 18 13 L 18 15 C 18 15.550781 18.445313 16 19 16 C 19.554688 16 20 15.550781 20 15 L 20 13 C 20 12.449219 19.554688 12 19 12 Z M 24 12 C 23.445313 12 23 12.449219 23 13 L 23 15 C 23 15.550781 23.445313 16 24 16 C 24.554688 16 25 15.550781 25 15 L 25 13 C 25 12.449219 24.554688 12 24 12 Z M 29 12 C 28.445313 12 28 12.449219 28 13 L 28 15 C 28 15.550781 28.445313 16 29 16 C 29.554688 16 30 15.550781 30 15 L 30 13 C 30 12.449219 29.554688 12 29 12 Z M 35 12 C 34.445313 12 34 12.449219 34 13 L 34 15 C 34 15.550781 34.445313 16 35 16 C 35.554688 16 36 15.550781 36 15 L 36 13 C 36 12.449219 35.554688 12 35 12 Z M 40 12 C 39.445313 12 39 12.449219 39 13 L 39 15 C 39 15.550781 39.445313 16 40 16 C 40.554688 16 41 15.550781 41 15 L 41 13 C 41 12.449219 40.554688 12 40 12 Z M 45 12 C 44.445313 12 44 12.449219 44 13 L 44 15 C 44 15.550781 44.445313 16 45 16 C 45.554688 16 46 15.550781 46 15 L 46 13 C 46 12.449219 45.554688 12 45 12 Z M 50 12 C 49.445313 12 49 12.449219 49 13 L 49 15 C 49 15.550781 49.445313 16 50 16 C 50.554688 16 51 15.550781 51 15 L 51 13 C 51 12.449219 50.554688 12 50 12 Z M 13.109375 20 L 50.890625 20 L 47.382813 53.3125 C 47.222656 54.847656 45.9375 56 44.398438 56 L 19.601563 56 C 18.0625 56 16.777344 54.847656 16.617188 53.3125 Z M 23.515625 25 C 23.261719 25 23.003906 25.097656 22.808594 25.292969 C 22.417969 25.683594 22.417969 26.316406 22.808594 26.707031 L 30.585938 34.484375 L 22.808594 42.265625 C 22.417969 42.65625 22.417969 43.285156 22.808594 43.675781 C 23.003906 43.871094 23.257813 43.96875 23.515625 43.96875 C 23.773438 43.96875 24.027344 43.871094 24.222656 43.675781 L 32 35.898438 L 39.777344 43.675781 C 39.972656 43.871094 40.226563 43.96875 40.484375 43.96875 C 40.742188 43.96875 40.996094 43.871094 41.191406 43.675781 C 41.582031 43.285156 41.582031 42.65625 41.191406 42.265625 L 33.414063 34.484375 L 41.191406 26.707031 C 41.582031 26.316406 41.582031 25.683594 41.191406 25.292969 C 40.800781 24.902344 40.167969 24.902344 39.777344 25.292969 L 32 33.070313 L 24.222656 25.292969 C 24.027344 25.097656 23.769531 25 23.515625 25 Z M 21 52 C 20.445313 52 20 52.449219 20 53 C 20 53.550781 20.445313 54 21 54 L 35 54 C 35.554688 54 36 53.550781 36 53 C 36 52.449219 35.554688 52 35 52 Z M 39 52 C 38.445313 52 38 52.449219 38 53 C 38 53.550781 38.445313 54 39 54 L 43 54 C 43.554688 54 44 53.550781 44 53 C 44 52.449219 43.554688 52 43 52 Z"/></svg>