<svg xmlns="http://www.w3.org/2000/svg" xmlns:xlink="http://www.w3.org/1999/xlink" viewBox="0 0 300 300" width="300" height="300" preserveAspectRatio="xMidYMid meet" style="width: 100%; height: 100%; transform: translate3d(0px, 0px, 0px); content-visibility: visible;" id="Sound Waves"><defs><clipPath id="__lottie_element_89572"><rect width="300" height="300" x="0" y="0"/></clipPath><clipPath id="__lottie_element_89574"><path d="M0,0 L300,0 L300,300 L0,300z"/></clipPath><clipPath id="__lottie_element_89575"><path fill="#ffffff" clip-rule="nonzero" d=" M283,32.0629997253418 C283,32.0629997253418 51,32.0629997253418 51,32.0629997253418 C51,32.0629997253418 51,150.06300354003906 51,150.06300354003906 C51,150.06300354003906 283,150.06300354003906 283,150.06300354003906 C283,150.06300354003906 283,32.0629997253418 283,32.0629997253418" fill-opacity="1"/></clipPath><clipPath id="__lottie_element_89578"><path d="M0,0 L300,0 L300,300 L0,300z"/></clipPath><clipPath id="__lottie_element_89579"><path fill="#ffffff" clip-rule="nonzero" d=" M283,32.125 C283,32.125 51,32.125 51,32.125 C51,32.125 51,150.125 51,150.125 C51,150.125 283,150.125 283,150.125 C283,150.125 283,32.125 283,32.125" fill-opacity="1"/></clipPath></defs><g clip-path="url(#__lottie_element_89572)"><g clip-path="url(#__lottie_element_89574)" transform="matrix(1,0,0,1,0,0)" opacity="1" style="display: block;"><g clip-path="url(#__lottie_element_89575)"><g transform="matrix(1,0,0,1,90,149.00364685058594)" opacity="1" style="display: block;"><g opacity="1" transform="matrix(1,0,0,1,0,0)"><path stroke-linecap="butt" stroke-linejoin="miter" fill-opacity="0" stroke-miterlimit="4" stroke="rgb(1,1,1)" stroke-opacity="1" stroke-width="20" d=" M0,-46 C0,-46 0,91 0,91"/></g></g><g transform="matrix(1,0,0,1,120,146.6511688232422)" opacity="1" style="display: block;"><g opacity="1" transform="matrix(1,0,0,1,0,0)"><path stroke-linecap="butt" stroke-linejoin="miter" fill-opacity="0" stroke-miterlimit="4" stroke="rgb(1,1,1)" stroke-opacity="1" stroke-width="20" d=" M0,-46 C0,-46 0,91 0,91"/></g></g><g transform="matrix(1,0,0,1,150,107.9378662109375)" opacity="1" style="display: block;"><g opacity="1" transform="matrix(1,0,0,1,0,0)"><path stroke-linecap="butt" stroke-linejoin="miter" fill-opacity="0" stroke-miterlimit="4" stroke="rgb(1,1,1)" stroke-opacity="1" stroke-width="20" d=" M0,-46 C0,-46 0,91 0,91"/></g></g><g transform="matrix(1,0,0,1,180,114.48943328857422)" opacity="1" style="display: block;"><g opacity="1" transform="matrix(1,0,0,1,0,0)"><path stroke-linecap="butt" stroke-linejoin="miter" fill-opacity="0" stroke-miterlimit="4" stroke="rgb(1,1,1)" stroke-opacity="1" stroke-width="20" d=" M0,-46 C0,-46 0,91 0,91"/></g></g><g transform="matrix(1,0,0,1,210,112.04325866699219)" opacity="1" style="display: block;"><g opacity="1" transform="matrix(1,0,0,1,0,0)"><path stroke-linecap="butt" stroke-linejoin="miter" fill-opacity="0" stroke-miterlimit="4" stroke="rgb(1,1,1)" stroke-opacity="1" stroke-width="20" d=" M0,-46 C0,-46 0,91 0,91"/></g></g></g></g><g clip-path="url(#__lottie_element_89578)" transform="matrix(1,0,0,-1,0,300)" opacity="1" style="display: block;"><g clip-path="url(#__lottie_element_89579)"><g transform="matrix(1,0,0,1,90,149.00364685058594)" opacity="1" style="display: block;"><g opacity="1" transform="matrix(1,0,0,1,0,0)"><path stroke-linecap="butt" stroke-linejoin="miter" fill-opacity="0" stroke-miterlimit="4" stroke="rgb(1,1,1)" stroke-opacity="1" stroke-width="20" d=" M0,-46 C0,-46 0,91 0,91"/></g></g><g transform="matrix(1,0,0,1,120,146.6511688232422)" opacity="1" style="display: block;"><g opacity="1" transform="matrix(1,0,0,1,0,0)"><path stroke-linecap="butt" stroke-linejoin="miter" fill-opacity="0" stroke-miterlimit="4" stroke="rgb(1,1,1)" stroke-opacity="1" stroke-width="20" d=" M0,-46 C0,-46 0,91 0,91"/></g></g><g transform="matrix(1,0,0,1,150,107.9378662109375)" opacity="1" style="display: block;"><g opacity="1" transform="matrix(1,0,0,1,0,0)"><path stroke-linecap="butt" stroke-linejoin="miter" fill-opacity="0" stroke-miterlimit="4" stroke="rgb(1,1,1)" stroke-opacity="1" stroke-width="20" d=" M0,-46 C0,-46 0,91 0,91"/></g></g><g transform="matrix(1,0,0,1,180,114.48943328857422)" opacity="1" style="display: block;"><g opacity="1" transform="matrix(1,0,0,1,0,0)"><path stroke-linecap="butt" stroke-linejoin="miter" fill-opacity="0" stroke-miterlimit="4" stroke="rgb(1,1,1)" stroke-opacity="1" stroke-width="20" d=" M0,-46 C0,-46 0,91 0,91"/></g></g><g transform="matrix(1,0,0,1,210,112.04325866699219)" opacity="1" style="display: block;"><g opacity="1" transform="matrix(1,0,0,1,0,0)"><path stroke-linecap="butt" stroke-linejoin="miter" fill-opacity="0" stroke-miterlimit="4" stroke="rgb(1,1,1)" stroke-opacity="1" stroke-width="20" d=" M0,-46 C0,-46 0,91 0,91"/></g></g></g></g></g></svg>
