<svg xmlns="http://www.w3.org/2000/svg" xmlns:xlink="http://www.w3.org/1999/xlink" viewBox="0,0,256,256" width="64px" height="64px"><g fill="none" fill-rule="nonzero" stroke="none" stroke-width="1" stroke-linecap="butt" stroke-linejoin="miter" stroke-miterlimit="10" stroke-dasharray="" stroke-dashoffset="0" font-family="none" font-weight="none" font-size="none" text-anchor="none" style="mix-blend-mode: normal"><g transform="scale(4,4)"><path d="M55.134,15h-46.268c-0.478,0 -0.866,-0.388 -0.866,-0.866v-4.268c0,-0.478 0.388,-0.866 0.866,-0.866h46.268c0.478,0 0.866,0.388 0.866,0.866v4.268c0,0.478 -0.388,0.866 -0.866,0.866z" fill="#efd8be"></path><path d="M53.908,44h-43.816c-1.705,0 -3.092,-1.387 -3.092,-3.092v-30.816c0,-1.705 1.387,-3.092 3.092,-3.092h43.816c1.705,0 3.092,1.387 3.092,3.092v30.816c0,1.705 -1.387,3.092 -3.092,3.092zM10.092,9c-0.602,0 -1.092,0.49 -1.092,1.092v30.816c0,0.602 0.49,1.092 1.092,1.092h43.816c0.602,0 1.092,-0.49 1.092,-1.092v-30.816c0,-0.602 -0.49,-1.092 -1.092,-1.092z" fill="#8d6c9f"></path><path d="M55.134,22h-46.268c-0.478,0 -0.866,-0.388 -0.866,-0.866v-4.268c0,-0.478 0.388,-0.866 0.866,-0.866h46.268c0.478,0 0.866,0.388 0.866,0.866v4.268c0,0.478 -0.388,0.866 -0.866,0.866z" fill="#faefde"></path><path d="M53.908,51h-43.816c-1.705,0 -3.092,-1.387 -3.092,-3.092v-30.816c0,-1.705 1.387,-3.092 3.092,-3.092h43.816c1.705,0 3.092,1.387 3.092,3.092v30.816c0,1.705 -1.387,3.092 -3.092,3.092zM10.092,16c-0.602,0 -1.092,0.49 -1.092,1.092v30.816c0,0.602 0.49,1.092 1.092,1.092h43.816c0.602,0 1.092,-0.49 1.092,-1.092v-30.816c0,-0.602 -0.49,-1.092 -1.092,-1.092z" fill="#8d6c9f"></path><path d="M53.908,57h-43.816c-1.156,0 -2.092,-0.936 -2.092,-2.092v-30.816c0,-1.156 0.936,-2.092 2.092,-2.092h43.817c1.155,0 2.091,0.936 2.091,2.092v30.817c0,1.155 -0.936,2.091 -2.092,2.091z" fill="#fff8ee"></path><path d="M41,30.783l-10,-3.779v12.078c-0.331,-0.053 -0.665,-0.08 -1,-0.08c-2.76,0 -5,1.79 -5,3.999c0,2.209 2.24,3.999 5,3.999c2.76,0 5,-1.79 5,-3.999v-8.889l6,2.67z" fill="#8d6c9f"></path><path d="M41.35,29.843l-10,-3.779c-0.517,-0.193 -1.093,0.069 -1.287,0.587c-0.042,0.112 -0.063,0.232 -0.063,0.352v10.998c-3.31,0 -6,2.24 -6,4.999c0,2.759 2.69,5 6,5c3.31,0 6,-2.24 6,-4.999v-7.349l4.59,2c0.504,0.227 1.096,0.003 1.323,-0.501c0.052,-0.116 0.082,-0.242 0.087,-0.369v-5.999c0.001,-0.419 -0.258,-0.794 -0.65,-0.94zM40,35.242l-4.59,-2c-0.504,-0.226 -1.096,-0.002 -1.322,0.502c-0.058,0.129 -0.088,0.268 -0.088,0.408v8.849c0,1.65 -1.79,3 -4,3c-2.21,0 -4,-1.35 -4,-3c0,-1.65 1.79,-3 4,-3c0.281,0.001 0.562,0.025 0.84,0.07c0.545,0.088 1.059,-0.282 1.147,-0.827c0.009,-0.057 0.014,-0.115 0.013,-0.173v-10.618l8,3z" fill="#8d6c9f"></path><path d="M53.908,58h-43.816c-1.705,0 -3.092,-1.387 -3.092,-3.092v-30.816c0,-1.705 1.387,-3.092 3.092,-3.092h30.908c0.553,0 1,0.448 1,1c0,0.552 -0.447,1 -1,1h-30.908c-0.602,0 -1.092,0.49 -1.092,1.092v30.816c0,0.602 0.49,1.092 1.092,1.092h43.816c0.602,0 1.092,-0.49 1.092,-1.092v-30.816c0,-0.602 -0.49,-1.092 -1.092,-1.092h-0.908c-0.553,0 -1,-0.448 -1,-1c0,-0.552 0.447,-1 1,-1h0.908c1.705,0 3.092,1.387 3.092,3.092v30.816c0,1.705 -1.387,3.092 -3.092,3.092z" fill="#8d6c9f"></path><path d="M49,23h-4c-0.553,0 -1,-0.448 -1,-1c0,-0.552 0.447,-1 1,-1h4c0.553,0 1,0.448 1,1c0,0.552 -0.447,1 -1,1z" fill="#8d6c9f"></path><path d="M21,51v2c0,0.552 0.448,1 1,1c0.552,0 1,-0.448 1,-1v-2c0,-0.552 -0.448,-1 -1,-1c-0.552,0 -1,0.448 -1,1z" fill="#8d6c9f"></path><path d="M26,51v2c0,0.552 0.448,1 1,1c0.552,0 1,-0.448 1,-1v-2c0,-0.552 -0.448,-1 -1,-1c-0.552,0 -1,0.448 -1,1z" fill="#8d6c9f"></path><path d="M31,51v2c0,0.552 0.448,1 1,1c0.552,0 1,-0.448 1,-1v-2c0,-0.552 -0.448,-1 -1,-1c-0.552,0 -1,0.448 -1,1z" fill="#8d6c9f"></path><path d="M36,51v2c0,0.552 0.448,1 1,1c0.552,0 1,-0.448 1,-1v-2c0,-0.552 -0.448,-1 -1,-1c-0.552,0 -1,0.448 -1,1z" fill="#8d6c9f"></path><path d="M41,51v2c0,0.552 0.448,1 1,1c0.552,0 1,-0.448 1,-1v-2c0,-0.552 -0.448,-1 -1,-1c-0.552,0 -1,0.448 -1,1z" fill="#8d6c9f"></path><path d="M46,51v2c0,0.552 0.448,1 1,1c0.552,0 1,-0.448 1,-1v-2c0,-0.552 -0.448,-1 -1,-1c-0.552,0 -1,0.448 -1,1z" fill="#8d6c9f"></path><path d="M51,51v2c0,0.552 0.448,1 1,1c0.552,0 1,-0.448 1,-1v-2c0,-0.552 -0.448,-1 -1,-1c-0.552,0 -1,0.448 -1,1z" fill="#8d6c9f"></path><path d="M11,51v2c0,0.552 0.448,1 1,1c0.552,0 1,-0.448 1,-1v-2c0,-0.552 -0.448,-1 -1,-1c-0.552,0 -1,0.448 -1,1z" fill="#8d6c9f"></path><path d="M16,51v2c0,0.552 0.448,1 1,1c0.552,0 1,-0.448 1,-1v-2c0,-0.552 -0.448,-1 -1,-1c-0.552,0 -1,0.448 -1,1z" fill="#8d6c9f"></path></g></g><g fill="none" fill-rule="nonzero" stroke="none" stroke-width="1" stroke-linecap="butt" stroke-linejoin="miter" stroke-miterlimit="10" stroke-dasharray="" stroke-dashoffset="0" font-family="none" font-weight="none" font-size="none" text-anchor="none" style="mix-blend-mode: normal"><g transform="translate(133,149) scale(4,4)" id="overlay"><path d="M25,9h-8v-8h-8v8h-8v8h8v8h8v-8h8z" fill="#72caaf"></path><path d="M17,26h-8c-0.552,0 -1,-0.448 -1,-1v-7h-7c-0.552,0 -1,-0.448 -1,-1v-8c0,-0.552 0.448,-1 1,-1h7v-7c0,-0.552 0.448,-1 1,-1h8c0.552,0 1,0.448 1,1v7h7c0.552,0 1,0.448 1,1v8c0,0.552 -0.448,1 -1,1h-7v7c0,0.552 -0.448,1 -1,1zM10,24h6v-7c0,-0.552 0.448,-1 1,-1h7v-6h-7c-0.552,0 -1,-0.448 -1,-1v-7h-6v7c0,0.552 -0.448,1 -1,1h-7v6h7c0.552,0 1,0.448 1,1z" fill="#8d6c9f"></path></g></g></svg>