<svg xmlns="http://www.w3.org/2000/svg" xmlns:xlink="http://www.w3.org/1999/xlink" viewBox="0,0,256,256" width="64px" height="64px"><g fill="none" fill-rule="nonzero" stroke="none" stroke-width="1" stroke-linecap="butt" stroke-linejoin="miter" stroke-miterlimit="10" stroke-dasharray="" stroke-dashoffset="0" font-family="none" font-weight="none" font-size="none" text-anchor="none" style="mix-blend-mode: normal"><g transform="scale(4,4)"><path d="M31,3c-15.46397,0 -28,12.53603 -28,28c0,15.46397 12.53603,28 28,28c15.46397,0 28,-12.53603 28,-28c0,-15.46397 -12.53603,-28 -28,-28z" fill="#97e0bb"></path><path d="M31,8c-12.70255,0 -23,10.29745 -23,23c0,12.70255 10.29745,23 23,23c12.70255,0 23,-10.29745 23,-23c0,-12.70255 -10.29745,-23 -23,-23z" fill="#97e0bb"></path><path d="M44,27h-8c-0.552,0 -1,-0.448 -1,-1v-8c0,-0.552 -0.448,-1 -1,-1h-6c-0.552,0 -1,0.448 -1,1v8c0,0.552 -0.448,1 -1,1h-8c-0.552,0 -1,0.448 -1,1v6c0,0.552 0.448,1 1,1h8c0.552,0 1,0.448 1,1v8c0,0.552 0.448,1 1,1h6c0.552,0 1,-0.448 1,-1v-8c0,-0.552 0.448,-1 1,-1h8c0.552,0 1,-0.448 1,-1v-6c0,-0.552 -0.448,-1 -1,-1z" fill="#faefde"></path><path d="M31.002,2c-0.041,0 -0.083,0 -0.124,0c-15.991,0.067 -28.945,13.132 -28.878,29.122c0.067,15.95 13.063,28.878 28.998,28.878c0.041,0 0.083,0 0.124,0c15.991,-0.067 28.945,-13.132 28.878,-29.122c-0.067,-15.95 -13.063,-28.878 -28.998,-28.878zM50.173,50.011c-5.078,5.122 -11.847,7.959 -19.059,7.989c-0.039,0 -0.079,0 -0.118,0c-7.168,0 -13.914,-2.777 -19.007,-7.827c-5.122,-5.078 -7.959,-11.847 -7.989,-19.059c-0.03,-7.212 2.749,-14.004 7.827,-19.125c5.078,-5.122 11.847,-7.959 19.059,-7.989c0.039,0 0.079,0 0.118,0c7.168,0 13.914,2.777 19.007,7.827c5.122,5.078 7.959,11.847 7.989,19.059c0.03,7.212 -2.749,14.004 -7.827,19.125z" fill="#8d6c9f"></path><path d="M31.089,51c-0.001,0 -0.003,0 -0.005,0c-0.552,0.002 -0.997,0.452 -0.995,1.004l0.009,2c0.002,0.552 0.449,0.996 1,0.996c0.001,0 0.003,0 0.004,0c0.553,-0.002 0.998,-0.452 0.996,-1.004l-0.009,-2c-0.002,-0.552 -0.449,-0.996 -1,-0.996zM37.098,51.051c-0.146,-0.533 -0.693,-0.842 -1.229,-0.701c-0.532,0.146 -0.847,0.695 -0.701,1.229l0.526,1.929c0.121,0.444 0.524,0.736 0.964,0.736c0.088,0 0.176,-0.012 0.265,-0.035c0.532,-0.146 0.847,-0.695 0.701,-1.229zM21.824,48.561c-0.479,-0.274 -1.09,-0.107 -1.364,0.372l-0.993,1.736c-0.274,0.479 -0.107,1.09 0.372,1.364c0.156,0.09 0.327,0.132 0.495,0.132c0.347,0 0.685,-0.181 0.869,-0.504l0.993,-1.736c0.275,-0.479 0.108,-1.09 -0.372,-1.364zM41.692,48.843c-0.278,-0.479 -0.891,-0.639 -1.367,-0.361c-0.478,0.278 -0.639,0.891 -0.361,1.367l1.007,1.729c0.186,0.319 0.521,0.497 0.865,0.497c0.171,0 0.344,-0.044 0.502,-0.136c0.478,-0.278 0.639,-0.891 0.361,-1.367zM26.294,50.39c-0.534,-0.139 -1.081,0.178 -1.222,0.712l-0.51,1.935c-0.141,0.534 0.178,1.081 0.712,1.222c0.086,0.022 0.171,0.033 0.256,0.033c0.442,0 0.848,-0.297 0.966,-0.745l0.51,-1.935c0.14,-0.535 -0.178,-1.082 -0.712,-1.222zM38.263,10.29c0.717,0.266 1.425,0.572 2.104,0.911c0.143,0.071 0.295,0.105 0.445,0.105c0.367,0 0.721,-0.202 0.896,-0.554c0.247,-0.494 0.046,-1.095 -0.448,-1.341c-0.743,-0.371 -1.519,-0.707 -2.304,-0.997c-0.516,-0.195 -1.092,0.071 -1.284,0.591c-0.193,0.518 0.072,1.094 0.591,1.285zM20.019,11.929c0.169,0 0.341,-0.043 0.498,-0.134c4.125,-2.377 9.001,-3.281 13.729,-2.543c0.555,0.082 1.058,-0.289 1.143,-0.834c0.085,-0.546 -0.289,-1.058 -0.834,-1.143c-5.181,-0.808 -10.52,0.183 -15.035,2.787c-0.479,0.275 -0.644,0.887 -0.367,1.365c0.183,0.322 0.52,0.502 0.866,0.502zM44,26h-8v-8c0,-1.103 -0.897,-2 -2,-2h-6c-1.103,0 -2,0.897 -2,2v8h-8c-1.103,0 -2,0.897 -2,2v6c0,1.103 0.897,2 2,2h8v8c0,1.103 0.897,2 2,2h6c1.103,0 2,-0.897 2,-2v-8h8c1.103,0 2,-0.897 2,-2v-6c0,-1.103 -0.897,-2 -2,-2zM44,34h-9c-0.552,0 -1,0.448 -1,1v9h-6v-9c0,-0.552 -0.448,-1 -1,-1h-9v-6h9c0.552,0 1,-0.448 1,-1v-9h6v9c0,0.552 0.448,1 1,1h9z" fill="#8d6c9f"></path></g></g></svg>