<svg xmlns="http://www.w3.org/2000/svg" xmlns:xlink="http://www.w3.org/1999/xlink" viewBox="0,0,256,256" width="64px" height="64px"><g fill="none" fill-rule="nonzero" stroke="none" stroke-width="1" stroke-linecap="butt" stroke-linejoin="miter" stroke-miterlimit="10" stroke-dasharray="" stroke-dashoffset="0" font-family="none" font-weight="none" font-size="none" text-anchor="none" style="mix-blend-mode: normal"><g transform="scale(4,4)"><path d="M55,55h-51c-1.65685,0 -3,-1.34315 -3,-3v-40c0,-1.65685 1.34315,-3 3,-3h16l6,6h26c1.65685,0 3,1.34315 3,3z" fill="#faefde"></path><path d="M4,9h16l7,7h-26v-4c0,-1.65685 1.34315,-3 3,-3z" fill="#fff7f0"></path><path d="M55,19h4c1.10457,0 2,0.89543 2,2v31c0,1.65685 -1.34315,3 -3,3h-3z" fill="#cda1a7"></path><path d="M1,45h54v10h-51c-1.65685,0 -3,-1.34315 -3,-3z" fill="#efd8be"></path><path d="M37,24.78l-10,-3.78v12.08c-0.33065,-0.05346 -0.66506,-0.08021 -1,-0.08c-2.76,0 -5,1.79 -5,4c0,2.21 2.24,4 5,4c2.76,0 5,-1.79 5,-4v-8.89l6,2.67z" fill="#8d6c9f"></path><path d="M51,44h-4c-0.55228,0 -1,0.44772 -1,1c0,0.55228 0.44772,1 1,1h4c0.55228,0 1,-0.44772 1,-1c0,-0.55228 -0.44772,-1 -1,-1z" fill="#8d6c9f"></path><path d="M59,18h-3v-1c0,-1.65685 -1.34315,-3 -3,-3h-25.29c-0.79049,-0.00069 -1.54876,-0.31334 -2.11,-0.87l-3.73,-3.68c-0.93377,-0.92615 -2.19483,-1.4471 -3.51,-1.45h-15.36c-1.65685,0 -3,1.34315 -3,3v41c0,2.20914 1.79086,4 4,4h54c2.20914,0 4,-1.79086 4,-4v-31c0,-1.65685 -1.34315,-3 -3,-3zM4,54c-1.10457,0 -2,-0.89543 -2,-2v-6h41c0.55228,0 1,-0.44772 1,-1c0,-0.55228 -0.44772,-1 -1,-1h-41v-33c0,-0.55228 0.44772,-1 1,-1h15.36c0.79049,0.00069 1.54876,0.31334 2.11,0.87l3.72,3.69c0.93785,0.92492 2.20279,1.4424 3.52,1.44h25.29c0.55228,0 1,0.44772 1,1v35c0.02549,0.71133 0.2432,1.40248 0.63,2zM60,52c0,1.10457 -0.89543,2 -2,2c-1.05301,-0.11555 -1.88445,-0.94699 -2,-2v-32h3c0.55228,0 1,0.44772 1,1z" fill="#8d6c9f"></path><path d="M5,48c-0.55228,0 -1,0.44772 -1,1v2c0,0.55228 0.44772,1 1,1c0.55228,0 1,-0.44772 1,-1v-2c0,-0.55228 -0.44772,-1 -1,-1zM10,48c-0.55228,0 -1,0.44772 -1,1v2c0,0.55228 0.44772,1 1,1c0.55228,0 1,-0.44772 1,-1v-2c0,-0.55228 -0.44772,-1 -1,-1zM15,48c-0.55228,0 -1,0.44772 -1,1v2c0,0.55228 0.44772,1 1,1c0.55228,0 1,-0.44772 1,-1v-2c0,-0.55228 -0.44772,-1 -1,-1zM20,48c-0.55228,0 -1,0.44772 -1,1v2c0,0.55228 0.44772,1 1,1c0.55228,0 1,-0.44772 1,-1v-2c0,-0.55228 -0.44772,-1 -1,-1zM25,48c-0.55228,0 -1,0.44772 -1,1v2c0,0.55228 0.44772,1 1,1c0.55228,0 1,-0.44772 1,-1v-2c0,-0.55228 -0.44772,-1 -1,-1zM30,48c-0.55228,0 -1,0.44772 -1,1v2c0,0.55228 0.44772,1 1,1c0.55228,0 1,-0.44772 1,-1v-2c0,-0.55228 -0.44772,-1 -1,-1zM35,48c-0.55228,0 -1,0.44772 -1,1v2c0,0.55228 0.44772,1 1,1c0.55228,0 1,-0.44772 1,-1v-2c0,-0.55228 -0.44772,-1 -1,-1zM40,48c-0.55228,0 -1,0.44772 -1,1v2c0,0.55228 0.44772,1 1,1c0.55228,0 1,-0.44772 1,-1v-2c0,-0.55228 -0.44772,-1 -1,-1zM45,48c-0.55228,0 -1,0.44772 -1,1v2c0,0.55228 0.44772,1 1,1c0.55228,0 1,-0.44772 1,-1v-2c0,-0.55228 -0.44772,-1 -1,-1zM50,48c-0.55228,0 -1,0.44772 -1,1v2c0,0.55228 0.44772,1 1,1c0.55228,0 1,-0.44772 1,-1v-2c0,-0.55228 -0.44772,-1 -1,-1zM37.35,23.84l-10,-3.78c-0.30757,-0.11492 -0.65197,-0.07153 -0.92143,0.11609c-0.26946,0.18762 -0.42964,0.49557 -0.42857,0.82391v11c-3.31,0 -6,2.24 -6,5c0,2.76 2.69,5 6,5c3.31,0 6,-2.24 6,-5v-7.35l4.59,2c0.30271,0.13642 0.6534,0.1137 0.93598,-0.06066c0.28257,-0.17435 0.46018,-0.4776 0.47402,-0.80934v-6c0.00136,-0.41847 -0.25799,-0.79354 -0.65,-0.94zM36,29.24l-4.59,-2c-0.30909,-0.13894 -0.66753,-0.11189 -0.95226,0.07188c-0.28474,0.18377 -0.45703,0.49924 -0.45774,0.83812v8.85c0,1.65 -1.79,3 -4,3c-2.21,0 -4,-1.35 -4,-3c0,-1.65 1.79,-3 4,-3c0.28141,0.00112 0.56229,0.02453 0.84,0.07c0.29163,0.0473 0.58925,-0.03679 0.81302,-0.22969c0.22377,-0.19291 0.35079,-0.47489 0.34698,-0.77031v-10.62l8,3z" fill="#8d6c9f"></path></g></g></svg>