<svg xmlns="http://www.w3.org/2000/svg"  viewBox="0 0 64 64" width="64px" height="64px"><path fill="#faefde" d="M6.083,3h31.042C38.161,3,39,3.839,39,4.875V9h2.125C42.161,9,43,9.839,43,10.875V15h2.125 C46.161,15,47,15.839,47,16.875V40v11H14.625C13.728,51,13,50.272,13,49.375V45h-2.5C9.672,45,9,44.328,9,43.5V39H6.375 C5.616,39,5,38.384,5,37.625V4.083C5,3.485,5.485,3,6.083,3z"/><path fill="#efd8be" d="M13 46L36 46 41 51 13 51zM39 9L39 3 9 3 5 3 5 3 5 39 9 39 9 45 13 45 13 15 43 15 43 9z"/><path fill="#8d6c9f" d="M14,46h-4c-1.028,0-2-0.972-2-2V10c0-1.028,0.972-2,2-2h32c1.028,0,2,0.972,2,2v5h-2v-5 c0,0.051-0.052,0.001-0.079-0.012L10,10c0.05,0.001,0.001,0.05-0.012,0.079L10,44c0-0.054,0.051-0.001,0.079,0.012L14,44V46z"/><path fill="#8d6c9f" d="M10,40H6c-1.028,0-2-0.972-2-2V4c0-1.028,0.972-2,2-2h32c1.028,0,2,0.972,2,2v5h-2V4 c-0.001,0.051-0.051,0-0.079-0.012L6,4c0.05,0.001,0.001,0.05-0.012,0.079L6,38c-0.001-0.054,0.05-0.002,0.079,0.012L10,38V40z"/><path fill="#8d6c9f" d="M41,52H14c-1.028,0-2-0.972-2-2V16c0-1.028,0.972-2,2-2h32c1.028,0,2,0.972,2,2v24h-2V16 c-0.001,0.052-0.052,0-0.079-0.012L14,16c0.05,0.001,0.001,0.05-0.012,0.079L14,50c-0.001-0.054,0.051-0.001,0.079,0.012L41,50 V52z"/><path fill="#8d6c9f" d="M17 48c-.553 0-1-.448-1-1v-2c0-.552.447-1 1-1s1 .448 1 1v2C18 47.552 17.553 48 17 48zM22 48c-.553 0-1-.448-1-1v-2c0-.552.447-1 1-1s1 .448 1 1v2C23 47.552 22.553 48 22 48zM27 48c-.553 0-1-.448-1-1v-2c0-.552.447-1 1-1s1 .448 1 1v2C28 47.552 27.553 48 27 48zM32 48c-.553 0-1-.448-1-1v-2c0-.552.447-1 1-1s1 .448 1 1v2C33 47.552 32.553 48 32 48zM33 26H19c-.553 0-1-.448-1-1s.447-1 1-1h14c.553 0 1 .448 1 1S33.553 26 33 26zM41 26h-4c-.553 0-1-.448-1-1s.447-1 1-1h4c.553 0 1 .448 1 1S41.553 26 41 26z"/><g><path fill="#8d6c9f" d="M23,32h-4c-0.553,0-1-0.448-1-1s0.447-1,1-1h4c0.553,0,1,0.448,1,1S23.553,32,23,32z"/></g><g><path fill="#f9e3ae" d="M29.5,41.582l10-10l14.043,14.043l-10,10L29.5,41.582z"/><path fill="#f6d397" d="M33.5,38.586l6.5-6.5l13.457,13.457l-6.5,6.5L33.5,38.586z"/><path fill="#ed7899" d="M49.91,61.93l-3.375-3.375l9.969-9.969l3.375,3.371c1.172,1.172,1.172,3.074,0,4.246l-5.727,5.727 C52.98,63.102,51.078,63.102,49.91,61.93z"/><path fill="#c2cde7" d="M43.457,56.531l10.996-10.996l3.043,3.039l-11,10.996L43.457,56.531z"/><path fill="#faefde" d="M29.57,30.867H39l-1.641,5.891l-2.289,1.18l-0.781,2.352l-5.5,0.789L28,32.438L29.57,30.867z"/><path fill="#8d6c9f" d="M60.539,51.297l-2.828-2.828L39.91,30.609c-0.16-0.164-0.371-0.266-0.602-0.293l-6.387-0.68 L28,28.938h-0.18c-0.293-0.004-0.57,0.121-0.762,0.34s-0.281,0.512-0.238,0.801l1.449,11.219c0.023,0.223,0.125,0.43,0.281,0.59 l14.84,14.891l3,3l2.828,2.832C49.977,63.355,51.25,64,52,64s1.281,0,2-0.102s1.664-0.66,2.301-1.289l4.238-4.242 C62.492,56.414,62.492,53.25,60.539,51.297z M38,32.156l-0.469,4.523h-1.93c-0.555,0-1,0.445-1,1v1.93l-4.461,0.469l-0.562-4.871 l3.562-3.559L38,32.156z M52.52,46.078L44,54.59L31.48,41.938l3.789-0.398l5.32,5.32c0.398,0.34,0.988,0.316,1.359-0.055 c0.367-0.367,0.391-0.961,0.051-1.355l-5.41-5.371V38.68h1.832c0.512,0,0.945-0.387,1-0.902l0.449-4.371L52.18,45.738 c0.07,0.105,0.164,0.199,0.27,0.27L52.52,46.078z M55.578,49.129l-8.477,8.48l-1.652-1.66l8.48-8.48L55.578,49.129z M59.121,56.906l-4.242,4.242v0.051c-0.562,0.562-1.328,0.883-2.125,0.883s-1.562-0.32-2.125-0.883l-2.07-2.07l-0.047-0.051 L57,50.59l2.121,2.078C60.289,53.84,60.289,55.738,59.121,56.906z"/></g></svg>