<svg xmlns="http://www.w3.org/2000/svg"  viewBox="0 0 64 64" width="64px" height="64px"><path fill="#efc88e" d="M13,55h42v0.85c0,1.74-1.41,3.15-3.15,3.15h-2H15.78C14.245,59,13,57.755,13,56.22V55L13,55z"/><path fill="#efd8be" d="M55,7v46c0,1.105-0.895,2-2,2H15c-1.081,0.055-1.945,0.919-2,2V8c0-1.657,1.343-3,3-3h37 C54.105,5,55,5.895,55,7z"/><path fill="#faefde" d="M27 15H45V25H27z"/><path fill="#8d6c9f" d="M32 31c0-.552-.448-1-1-1h-4c-.552 0-1 .448-1 1s.448 1 1 1h4C31.552 32 32 31.552 32 31zM45 30H35c-.552 0-1 .448-1 1s.448 1 1 1h10c.552 0 1-.448 1-1S45.552 30 45 30zM43 34H27c-.552 0-1 .448-1 1s.448 1 1 1h16c.552 0 1-.448 1-1S43.552 34 43 34zM41 38H27c-.552 0-1 .448-1 1s.448 1 1 1h14c.552 0 1-.448 1-1S41.552 38 41 38z"/><path fill="#8d6c9f" d="M53,4H16c-2.209,0-4,1.791-4,4v2h-1c-1.657,0-3,1.343-3,3s1.343,3,3,3h1v2h-1c-1.657,0-3,1.343-3,3 s1.343,3,3,3h1v2h-1c-1.657,0-3,1.343-3,3s1.343,3,3,3h1v2h-1c-1.657,0-3,1.343-3,3s1.343,3,3,3h1v2h-1c-1.657,0-3,1.343-3,3 s1.343,3,3,3h1v9c0,1.657,1.343,3,3,3h38c1.657,0,3-1.343,3-3v-1.18V7C56,5.343,54.657,4,53,4z M11,14c-0.552,0-1-0.448-1-1 s0.448-1,1-1h1v2H11z M11,22c-0.552,0-1-0.448-1-1s0.448-1,1-1h1v2H11z M11,30c-0.552,0-1-0.448-1-1s0.448-1,1-1h1v2H11z M11,38 c-0.552,0-1-0.448-1-1s0.448-1,1-1h1v2H11z M11,46c-0.552,0-1-0.448-1-1s0.448-1,1-1h1v2H11z M53,58H15c-0.552,0-1-0.448-1-1 c0-0.73,0.83-1,1-1h39v1C54,57.552,53.552,58,53,58z M54,53c0,0.552-0.448,1-1,1H15c-0.343,0.005-0.682,0.073-1,0.2V52 c0.552,0,1-0.448,1-1v-2c0-0.552-0.448-1-1-1v-4h3c0.552,0,1-0.448,1-1s-0.448-1-1-1h-3v-6h3c0.552,0,1-0.448,1-1s-0.448-1-1-1h-3 v-6h3c0.552,0,1-0.448,1-1s-0.448-1-1-1h-3v-6h3c0.552,0,1-0.448,1-1s-0.448-1-1-1h-3v-6h3c0.552,0,1-0.448,1-1s-0.448-1-1-1h-3V8 c0-1.105,0.895-2,2-2h37c0.552,0,1,0.448,1,1v41c-0.552,0-1,0.448-1,1v2c0,0.552,0.448,1,1,1V53z"/><path fill="#8d6c9f" d="M45 26H27c-.552 0-1-.447-1-1V15c0-.553.448-1 1-1h18c.552 0 1 .447 1 1v10C46 25.553 45.552 26 45 26zM28 24h16v-8H28V24zM19 48c-.552 0-1 .448-1 1v2c0 .552.448 1 1 1s1-.448 1-1v-2C20 48.448 19.552 48 19 48zM24 48c-.552 0-1 .448-1 1v2c0 .552.448 1 1 1s1-.448 1-1v-2C25 48.448 24.552 48 24 48zM29 48c-.552 0-1 .448-1 1v2c0 .552.448 1 1 1s1-.448 1-1v-2C30 48.448 29.552 48 29 48zM34 48c-.552 0-1 .448-1 1v2c0 .552.448 1 1 1s1-.448 1-1v-2C35 48.448 34.552 48 34 48zM39 48c-.552 0-1 .448-1 1v2c0 .552.448 1 1 1s1-.448 1-1v-2C40 48.448 39.552 48 39 48zM44 48c-.552 0-1 .448-1 1v2c0 .552.448 1 1 1s1-.448 1-1v-2C45 48.448 44.552 48 44 48zM49 48c-.552 0-1 .448-1 1v2c0 .552.448 1 1 1s1-.448 1-1v-2C50 48.448 49.552 48 49 48z"/></svg>