<svg xmlns="http://www.w3.org/2000/svg" xmlns:xlink="http://www.w3.org/1999/xlink" viewBox="0,0,256,256" width="64px" height="64px"><g fill="none" fill-rule="nonzero" stroke="none" stroke-width="1" stroke-linecap="butt" stroke-linejoin="miter" stroke-miterlimit="10" stroke-dasharray="" stroke-dashoffset="0" font-family="none" font-weight="none" font-size="none" text-anchor="none" style="mix-blend-mode: normal"><g transform="scale(4,4)"><path d="M59,7v50c0,1.10457 -0.89543,2 -2,2h-34c-0.31647,-0.0003 -0.62834,-0.0757 -0.91,-0.22c-0.66868,-0.34166 -1.08963,-1.02909 -1.09,-1.78v-50c0,-1.10457 0.89543,-2 2,-2h34c0.18951,0 0.37807,0.02694 0.56,0.08c0.85333,0.24889 1.44,1.03111 1.44,1.92z" fill="#faefde"></path><path d="M59.56,23.44l-0.56,0.56l-32.78,32.78h-4.13c-0.66868,-0.34166 -1.08963,-1.02909 -1.09,-1.78v-7l38,-38zM58.38,6.19l-37.38,37.37v-6.56l32,-32h4.5l0.06,0.08zM48,5l-27,27v-4l23,-23z" fill="#faefde"></path><path d="M59,58.56v0c0,0.55228 -0.44772,1 -1,1h-36c-0.55228,0 -1,-0.44772 -1,-1v0c0,-2.20914 1.79086,-4 4,-4h30c2.20914,0 4,1.79086 4,4z" fill="#cda1a7"></path><path d="M30.5,12l1.24,2.26l2.26,1.24l-2.26,1.24l-1.24,2.26l-1.24,-2.26l-2.26,-1.24l2.26,-1.24zM50,40.16l0.85,1.57l1.57,0.85l-1.57,0.86l-0.85,1.56l-0.85,-1.56l-1.57,-0.86l1.57,-0.85zM30.65,45l0.58,1.06l1.07,0.59l-1.07,0.58l-0.58,1.07l-0.58,-1.07l-1.07,-0.58l1.07,-0.59z" fill="#faefde"></path><path d="M25,52c-0.55228,0 -1,0.44772 -1,1v2c0,0.55228 0.44772,1 1,1c0.55228,0 1,-0.44772 1,-1v-2c0,-0.55228 -0.44772,-1 -1,-1zM30,52c-0.55228,0 -1,0.44772 -1,1v2c0,0.55228 0.44772,1 1,1c0.55228,0 1,-0.44772 1,-1v-2c0,-0.55228 -0.44772,-1 -1,-1zM34,53v2c0,0.55228 0.44772,1 1,1c0.55228,0 1,-0.44772 1,-1v-2c0,-0.55228 -0.44772,-1 -1,-1c-0.55228,0 -1,0.44772 -1,1zM40,56c0.55228,0 1,-0.44772 1,-1v-2c0,-0.55228 -0.44772,-1 -1,-1c-0.55228,0 -1,0.44772 -1,1v2c0,0.55228 0.44772,1 1,1zM45,56c0.55228,0 1,-0.44772 1,-1v-2c0,-0.55228 -0.44772,-1 -1,-1c-0.55228,0 -1,0.44772 -1,1v2c0,0.55228 0.44772,1 1,1zM50,56c0.55228,0 1,-0.44772 1,-1v-2c0,-0.55228 -0.44772,-1 -1,-1c-0.55228,0 -1,0.44772 -1,1v2c0,0.55228 0.44772,1 1,1zM55,56c0.55228,0 1,-0.44772 1,-1v-2c0,-0.55228 -0.44772,-1 -1,-1c-0.55228,0 -1,0.44772 -1,1v2c0,0.55228 0.44772,1 1,1z" fill="#8d6c9f"></path><path d="M60,7c0,-1.65685 -1.34315,-3 -3,-3h-34c-1.65685,0 -3,1.34315 -3,3v50c0,1.65685 1.34315,3 3,3h34c1.65685,0 3,-1.34315 3,-3zM58,57c0,0.55228 -0.44772,1 -1,1h-34c-0.55228,0 -1,-0.44772 -1,-1v-50c0,-0.55228 0.44772,-1 1,-1h34c0.55228,0 1,0.44772 1,1z" fill="#8d6c9f"></path><path d="M7,29h31l-4,-4l4,-4l11,11l-11,11l-4,-4l4,-4h-31z" fill="#20c997"></path><path d="M49.71,31.29l-11,-11c-0.39004,-0.38772 -1.01996,-0.38772 -1.41,0l-4,4c-0.38772,0.39004 -0.38772,1.01996 0,1.41l2.29,2.3h-28.59c-0.55228,0 -1,0.44772 -1,1v6c0,0.55228 0.44772,1 1,1h28.59l-2.29,2.29c-0.38772,0.39004 -0.38772,1.01996 0,1.41l4,4c0.39004,0.38772 1.01996,0.38772 1.41,0l11,-11c0.38772,-0.39004 0.38772,-1.01996 0,-1.41zM38,41.59l-2.59,-2.59l3.29,-3.29c0.28716,-0.28481 0.37449,-0.71455 0.22127,-1.08885c-0.15322,-0.3743 -0.51682,-0.61945 -0.92127,-0.62115h-30v-4h30c0.40627,0.00236 0.77358,-0.2413 0.92937,-0.61652c0.15579,-0.37521 0.06909,-0.80739 -0.21937,-1.09348l-3.3,-3.29l2.59,-2.59l9.59,9.59z" fill="#8d6c9f"></path></g></g></svg>